PathFileType	4	(X/Y/Z)	/Users/niels/Desktop/University/Third Semester/Perception and Action/Exam/Gymnastics Motion Tracking/Code for Gym Tracking/Analyzed Data/Webcam_Backflip/id12_2_trajectory_Sports2D/id12_2_trajectory_Sports2D_px_person00.trc
DataRate	CameraRate	NumFrames	NumMarkers	Units	OrigDataRate	OrigDataStartFrame	OrigNumFrames
29.714285714285715	29.714285714285715	9	22	m	29.714285714285715	39	105
Frame#	Time	Hip			RHip			RKnee			RAnkle			RBigToe			RSmallToe			RHeel			LHip			LKnee			LAnkle			LBigToe			LSmallToe			LHeel			Neck			Head			Nose			RShoulder			RElbow			RWrist			LShoulder			LElbow			LWrist		
		X1	Y1	Z1	X2	Y2	Z2	X3	Y3	Z3	X4	Y4	Z4	X5	Y5	Z5	X6	Y6	Z6	X7	Y7	Z7	X8	Y8	Z8	X9	Y9	Z9	X10	Y10	Z10	X11	Y11	Z11	X12	Y12	Z12	X13	Y13	Z13	X14	Y14	Z14	X15	Y15	Z15	X16	Y16	Z16	X17	Y17	Z17	X18	Y18	Z18	X19	Y19	Z19	X20	Y20	Z20	X21	Y21	Z21	X22	Y22	Z22
39	1.3125	0.9849328482125925	-0.3346467199613314	0.0	0.9988289895683287	-0.32972420315293766	0.0	1.1793852570789685	-0.38753048353817565	0.0	1.1684320355984614	-0.5533822917370924	0.0	1.2313298044940921	-0.6102579130401024	0.0	1.2231973126309792	-0.6087924300100381	0.0	1.1552747781327348	-0.5726718568016269	0.0	0.9725559378735186	-0.3385986988063319	0.0	1.1510775604478973	-0.4602789481413471	0.0	1.034951930538051	-0.5957372632310024	0.0	1.0641903927037428	-0.6647596585451523	0.0	1.048985861987116	-0.6713333438190515	0.0	1.0097213763761022	-0.607027051510563	0.0	1.0988513821209296	-0.10454341117408457	0.0	1.1977704095740105	-0.05195325063495357	0.0	1.1759363589574001	-0.11227102428066109	0.0	1.0819832306513373	-0.07945608943461051	0.0	1.1733657694768238	-0.13014394087877296	0.0	1.255490514975374	-0.12671541066744982	0.0	1.0702746033187547	-0.11337393474544537	0.0	1.1597148213922586	-0.20671481895239008	0.0	1.2424370800131754	-0.15555597006233912	0.0
40	1.346153846153846	0.9834341182622433	-0.33289624699500114	0.0	0.9943778450555847	-0.32668279847155046	0.0	1.1803135849647521	-0.3606457585452587	0.0	1.2022948018252277	-0.49338924366210807	0.0	1.2644912541330928	-0.5491908011866018	0.0	1.256573298368446	-0.5471812766928247	0.0	1.1929501889543748	-0.515992059539703	0.0	0.9792970743991356	-0.3389086372633554	0.0	1.152441391327434	-0.4619317011739024	0.0	1.0276598463473474	-0.59249209891466	0.0	1.0562596749522886	-0.6648150160067873	0.0	1.044734084364174	-0.664866096167939	0.0	1.002742302318953	-0.6005665522891088	0.0	1.102488561061973	-0.10930438152436855	0.0	1.2023924844040594	-0.04593014534368852	0.0	1.180710373427024	-0.11462459780027719	0.0	1.0818380995109136	-0.09090382527191528	0.0	1.1480841669986577	-0.17246316989952032	0.0	1.2526065465429392	-0.1726628332386579	0.0	1.0874446774885547	-0.11968702017768358	0.0	1.1664245147852188	-0.22178112414089465	0.0	1.2619512345252668	-0.17820518764678184	0.0
41	1.3798076923076923	0.9868467112022375	-0.3374969333328967	0.0	0.9921592758688961	-0.33061721558519425	0.0	1.1719010985917142	-0.3578155852016216	0.0	1.227948502212301	-0.45126869455817703	0.0	1.2860203448512557	-0.509650059877102	0.0	1.2775903691518091	-0.5076785533621659	0.0	1.2209831458445677	-0.47966267195545853	0.0	0.9925425004482302	-0.3441415090220401	0.0	1.1484248172011786	-0.4764708535603427	0.0	1.0262957880508579	-0.6113923993639298	0.0	1.0548946491471158	-0.6865571187887233	0.0	1.0495758962705684	-0.6771228888635252	0.0	1.0019877278943987	-0.6180098526226926	0.0	1.1046892398986041	-0.11721558707633176	0.0	1.2041551449845305	-0.042018492131988404	0.0	1.1842103305944183	-0.11870652285156802	0.0	1.0793973988441368	-0.10662031068650003	0.0	1.1237157690845283	-0.20893130170982951	0.0	1.2430438183530568	-0.211998340891672	0.0	1.1035493515869423	-0.1303376591222634	0.0	1.1712680474252555	-0.23437893460276504	0.0	1.2735490234985423	-0.19821108984055757	0.0
42	1.4134615384615383	0.9941435278107948	-0.34866387594035997	0.0	0.9928890143105809	-0.3416607064556531	0.0	1.1568544546347803	-0.37364787626784673	0.0	1.2407013000673923	-0.43709662463011073	0.0	1.2930691120148825	-0.5006407467275054	0.0	1.283405913217103	-0.49950591522252874	0.0	1.233264112855963	-0.4743345486062555	0.0	1.0086103768716066	-0.35434758176065856	0.0	1.1397404062597136	-0.4956377288830072	0.0	1.0344310576087954	-0.6442391179180738	0.0	1.062534674018596	-0.7223520494900977	0.0	1.0668357490630564	-0.6984815984427001	0.0	1.011160322939724	-0.6516473126816986	0.0	1.1048684266053432	-0.12726604754609466	0.0	1.2017945564349846	-0.04119538964250623	0.0	1.185392998371985	-0.12384525654462523	0.0	1.0753152156705872	-0.124333505325467	0.0	1.1056452512753048	-0.23628201317891318	0.0	1.2321276692365335	-0.23813899533650865	0.0	1.1138968981143804	-0.14309759652609774	0.0	1.1748452309902413	-0.2422276772643711	0.0	1.2762713345934535	-0.2115332359316763	0.0
43	1.4471153846153846	1.0039070880880623	-0.3661985798582136	0.0	0.9968340564737362	-0.3593969201953452	0.0	1.1389625828212029	-0.40013278116182366	0.0	1.2383437887780875	-0.45917599276075793	0.0	1.2856309151289305	-0.5298436057796416	0.0	1.2740548750790937	-0.5303583280103196	0.0	1.2266869928765178	-0.5079441024192888	0.0	1.0234296310999882	-0.3699053237522086	0.0	1.128338135465057	-0.510565724262635	0.0	1.0538330591753675	-0.6783233185478768	0.0	1.0789959326977043	-0.7612654835761029	0.0	1.0966736915165687	-0.7165023533880993	0.0	1.0320548247034789	-0.6887253204618567	0.0	1.102405436044716	-0.13917740857303537	0.0	1.1947356505634033	-0.044385963010624356	0.0	1.1833362195859705	-0.13028843243543287	0.0	1.0701693624538604	-0.14251320842446827	0.0	1.0962423031935928	-0.2545465309150479	0.0	1.2244282190223374	-0.2501681128636823	0.0	1.114469094084343	-0.15681913187705546	0.0	1.1745494850894276	-0.2458646254464198	0.0	1.2706419265529616	-0.21609924670281364	0.0
44	1.4807692307692306	1.0146612700851152	-0.389071544741706	0.0	1.003566052876341	-0.3828439154348764	0.0	1.122176282460527	-0.43759433537975795	0.0	1.2211954105517309	-0.5210103150340738	0.0	1.266059173114835	-0.5994291401210134	0.0	1.2520884757192643	-0.6020406085267651	0.0	1.2021224735294525	-0.5809848546353402	0.0	1.03430749327864	-0.39056338964558923	0.0	1.1175231779972123	-0.5155117435857643	0.0	1.0831085365909976	-0.7021714725581018	0.0	1.1012967161530405	-0.7940069604787151	0.0	1.1343812384082304	-0.7235698052928801	0.0	1.063126134317312	-0.717139178145467	0.0	1.0969845650649284	-0.15350630006136914	0.0	1.1832141172984654	-0.05230816086104412	0.0	1.1775179218463445	-0.1390179427989537	0.0	1.064294801925273	-0.16087624174505502	0.0	1.0941995696752478	-0.266440650058253	0.0	1.2209668839991963	-0.2532470295746796	0.0	1.1043834704551987	-0.17199854439769494	0.0	1.1686135052149405	-0.2480617549226101	0.0	1.258521907633209	-0.21350179578265532	0.0
45	1.5144230769230769	1.025061790918108	-0.4159709748968917	0.0	1.0122193376400175	-0.41084930369919004	0.0	1.111086084744479	-0.49178586963286186	0.0	1.1926316796365632	-0.6161293881160742	0.0	1.2395694435522573	-0.6992014002684992	0.0	1.223212561454652	-0.7034903080824513	0.0	1.1651687335617096	-0.6815256780678783	0.0	1.0404021670934371	-0.4156376553229377	0.0	1.111199184144284	-0.5127340554604958	0.0	1.1164315700306497	-0.7136321369774045	0.0	1.1251023839805279	-0.8176155906142404	0.0	1.1707238448551291	-0.7241535033047859	0.0	1.0981677288567482	-0.7336820623313395	0.0	1.0888354801129607	-0.17112024103282686	0.0	1.1680728663274382	-0.06525108594000949	0.0	1.1679484273709948	-0.1510159040190038	0.0	1.0579015149308546	-0.18036520125803973	0.0	1.0960928591400931	-0.2766758699344523	0.0	1.2198623456847668	-0.25554613679375277	0.0	1.086148351109528	-0.18985059861266512	0.0	1.1582826001799087	-0.2529329020742045	0.0	1.242402404469782	-0.2091088901000186	0.0
46	1.548076923076923	1.034170913523425	-0.4459795567731089	0.0	1.0218303750502669	-0.4423711064239365	0.0	1.110386968052813	-0.5589372966053874	0.0	1.1598628152957817	-0.7244194363122805	0.0	1.2133323211453606	-0.8060654814397672	0.0	1.1952204498912604	-0.8105226854181722	0.0	1.1250802123344885	-0.7862704769620185	0.0	1.042430169396441	-0.4446390318139526	0.0	1.1120791713125326	-0.514991671251711	0.0	1.1438115866208276	-0.7240329543634937	0.0	1.146501014698758	-0.8363191863068943	0.0	1.1955675543502018	-0.7333861565672425	0.0	1.1267147114390015	-0.7484051745151195	0.0	1.0786655224388835	-0.19228815132683058	0.0	1.1503626405951994	-0.08256652689406378	0.0	1.1552315184068678	-0.1664502268374916	0.0	1.0510591197013626	-0.2023581968244779	0.0	1.098583042016947	-0.2904692324066461	0.0	1.2186731033740696	-0.2642367804005084	0.0	1.0641785295689994	-0.21131464586007728	0.0	1.1461102074363612	-0.26504575132873337	0.0	1.2243352633846403	-0.21034066852489222	0.0
47	1.5817307692307692	1.041484952833529	-0.4780792796182692	0.0	1.031340648220014	-0.4760384500527789	0.0	1.1220113296722756	-0.6236290984161215	0.0	1.1312354236998452	-0.8198899282604459	0.0	1.1927256170876006	-0.8956814905103655	0.0	1.1737585465350437	-0.8983042047249568	0.0	1.0904314317500445	-0.8720205907877476	0.0	1.0422495988450768	-0.4767463787730368	0.0	1.119345497809104	-0.5378541335676069	0.0	1.1552751038150044	-0.749504227025211	0.0	1.1625955540845831	-0.8578589256378236	0.0	1.2034838592328811	-0.764630543307197	0.0	1.1383905598010027	-0.7765189305848821	0.0	1.0674384926787313	-0.2159084860202485	0.0	1.1310684106129063	-0.10235986247021105	0.0	1.140591482618682	-0.18427907347758055	0.0	1.0438161021471342	-0.22750092269170452	0.0	1.0996895157840931	-0.3116073906001838	0.0	1.2160183348645024	-0.28346254598449405	0.0	1.0431005268966347	-0.23627951731205787	0.0	1.1338773953463226	-0.2878222939085002	0.0	1.2056728347585481	-0.22398461137200387	0.0
